<svg xmlns="http://www.w3.org/2000/svg" viewBox="0 0 100 100" width="1024" height="1024">
  <rect width="100" height="100" fill="#FFFFFF"/>
  <polygon points="42.70,34.05 53.53,34.05 53.48,34.49 53.43,34.93 53.38,35.38 53.34,35.82 53.29,36.27 53.24,36.72 53.19,37.17 53.14,37.62 53.09,38.08 53.04,38.53 52.99,38.99 52.95,39.45 52.89,39.91 52.84,40.37 52.79,40.83 52.74,41.30 52.69,41.76 52.64,42.23 52.59,42.70 52.54,43.17 52.48,43.64 52.43,44.12 52.38,44.59 52.33,45.07 52.27,45.54 52.22,46.02 52.16,46.50 52.11,46.97 52.06,47.45 52.00,47.93 51.95,48.40 51.89,48.87 51.84,49.35 51.78,49.82 51.72,50.29 51.67,50.77 51.61,51.24 51.55,51.71 51.49,52.18 51.44,52.65 51.38,53.12 51.32,53.59 51.26,54.06 51.20,54.53 51.14,55.00 51.08,55.47 51.03,55.94 50.97,56.41 50.91,56.87 50.84,57.34 50.78,57.80 50.72,58.26 50.66,58.72 50.60,59.18 50.54,59.64 50.48,60.09 50.42,60.54 50.36,60.99 50.30,61.44 50.24,61.88 50.18,62.33 50.12,62.77 50.06,63.21 50.00,63.65 49.94,64.08 49.88,64.52 49.82,64.95 49.76,65.38 49.70,65.80 49.64,66.23 49.58,66.66 49.52,67.08 49.46,67.50 49.40,67.91 49.34,68.32 49.28,68.73 49.22,69.14 49.16,69.54 49.11,69.93 49.05,70.33 48.99,70.72 48.93,71.10 48.88,71.49 48.82,71.87 48.76,72.24 48.70,72.61 48.65,72.98 48.59,73.35 48.54,73.71 48.48,74.07 48.43,74.42 48.37,74.77 48.32,75.12 48.26,75.46 48.21,75.80 48.15,76.14 37.01,76.14 37.08,75.79 37.16,75.43 37.23,75.08 37.30,74.72 37.38,74.36 37.45,73.99 37.52,73.62 37.59,73.25 37.66,72.87 37.73,72.49 37.80,72.11 37.87,71.72 37.94,71.34 38.01,70.94 38.08,70.55 38.15,70.15 38.22,69.75 38.29,69.34 38.36,68.93 38.42,68.52 38.49,68.10 38.56,67.68 38.62,67.26 38.69,66.83 38.76,66.41 38.83,65.98 38.89,65.54 38.96,65.11 39.03,64.68 39.09,64.24 39.16,63.80 39.22,63.36 39.29,62.92 39.36,62.48 39.42,62.03 39.49,61.58 39.55,61.14 39.62,60.69 39.68,60.23 39.75,59.78 39.81,59.33 39.88,58.87 39.94,58.41 40.01,57.95 40.07,57.49 40.14,57.03 40.20,56.56 40.26,56.10 40.33,55.63 40.39,55.16 40.45,54.69 40.51,54.22 40.58,53.75 40.64,53.29 40.70,52.82 40.76,52.35 40.82,51.88 40.88,51.41 40.94,50.94 40.99,50.47 41.05,50.00 41.11,49.53 41.17,49.06 41.22,48.59 41.28,48.12 41.34,47.65 41.39,47.18 41.45,46.71 41.50,46.24 41.56,45.77 41.61,45.30 41.66,44.83 41.72,44.36 41.77,43.89 41.82,43.43 41.87,42.96 41.92,42.50 41.97,42.04 42.02,41.58 42.06,41.12 42.11,40.66 42.15,40.21 42.20,39.76 42.24,39.31 42.29,38.86 42.33,38.41 42.37,37.97 42.41,37.53 42.45,37.08 42.49,36.65 42.53,36.21 42.56,35.77 42.60,35.34 42.64,34.91 42.67,34.48 42.70,34.05" fill="#00506B"/>
  <polygon points="55.13,45.43 60.91,41.75 61.05,41.87 61.20,41.99 61.35,42.11 61.50,42.24 61.65,42.37 61.81,42.49 61.96,42.63 62.11,42.76 62.27,42.89 62.42,43.03 62.58,43.17 62.74,43.30 62.90,43.45 63.06,43.59 63.22,43.73 63.38,43.88 63.54,44.03 63.71,44.17 63.87,44.33 64.04,44.48 64.21,44.63 64.37,44.79 64.54,44.95 64.71,45.11 64.88,45.27 65.05,45.42 65.21,45.58 65.37,45.73 65.53,45.89 65.68,46.04 65.83,46.18 65.97,46.33 66.12,46.47 66.26,46.62 66.39,46.76 66.53,46.89 66.66,47.03 66.78,47.16 66.91,47.30 67.03,47.43 67.14,47.55 67.26,47.68 67.37,47.80 67.48,47.93 67.58,48.05 67.68,48.17 67.78,48.28 67.88,48.40 61.79,52.57 61.70,52.45 61.61,52.32 61.51,52.20 61.42,52.07 61.32,51.94 61.21,51.81 61.11,51.68 61.00,51.54 60.88,51.40 60.77,51.26 60.65,51.12 60.53,50.97 60.40,50.83 60.27,50.68 60.14,50.53 60.01,50.38 59.87,50.22 59.73,50.07 59.59,49.91 59.44,49.75 59.29,49.58 59.14,49.42 58.98,49.25 58.82,49.08 58.66,48.91 58.50,48.74 58.34,48.58 58.18,48.41 58.03,48.25 57.87,48.09 57.71,47.93 57.56,47.77 57.40,47.61 57.24,47.45 57.09,47.30 56.94,47.15 56.78,46.99 56.63,46.85 56.48,46.70 56.32,46.55 56.17,46.41 56.02,46.26 55.87,46.12 55.72,45.98 55.57,45.84 55.43,45.70 55.28,45.57 55.13,45.43" fill="#00506B"/>
  <polygon points="52.96,61.63 59.06,57.70 59.23,57.83 59.41,57.96 59.58,58.09 59.76,58.22 59.94,58.36 60.12,58.49 60.30,58.63 60.48,58.78 60.67,58.92 60.85,59.06 61.04,59.21 61.22,59.36 61.41,59.51 61.60,59.67 61.79,59.82 61.98,59.98 62.17,60.14 62.36,60.30 62.56,60.46 62.75,60.63 62.95,60.80 63.15,60.96 63.34,61.14 63.54,61.31 63.74,61.48 63.94,61.65 64.13,61.82 64.32,61.99 64.51,62.16 64.69,62.32 64.87,62.48 65.04,62.64 65.21,62.80 65.38,62.96 65.55,63.12 65.71,63.27 65.87,63.42 66.03,63.58 66.18,63.72 66.33,63.87 66.47,64.02 66.61,64.16 66.75,64.31 66.89,64.45 67.02,64.59 67.15,64.72 67.27,64.86 67.40,64.99 60.98,69.40 60.87,69.27 60.76,69.13 60.64,68.99 60.52,68.85 60.40,68.71 60.27,68.56 60.14,68.42 60.01,68.27 59.87,68.12 59.73,67.96 59.59,67.81 59.44,67.65 59.29,67.49 59.13,67.33 58.97,67.16 58.81,67.00 58.64,66.83 58.47,66.66 58.30,66.49 58.12,66.31 57.94,66.14 57.75,65.96 57.56,65.78 57.37,65.60 57.18,65.41 56.99,65.23 56.80,65.05 56.61,64.87 56.42,64.70 56.23,64.52 56.04,64.35 55.85,64.17 55.67,64.00 55.48,63.84 55.30,63.67 55.11,63.50 54.93,63.34 54.75,63.17 54.56,63.01 54.38,62.85 54.20,62.69 54.02,62.54 53.84,62.38 53.67,62.23 53.49,62.08 53.31,61.92 53.14,61.78 52.96,61.63" fill="#00506B"/>
  <polygon points="44.47,19.77 85.67,19.77 85.67,30.12 44.47,30.12" fill="#00506B"/>
  <polygon points="47.04,34.05 75.57,34.05 75.57,43.90 47.04,43.90" fill="#00506B"/>
  <polygon points="32.76,49.44 88.00,49.44 88.00,59.94 32.76,59.94" fill="#00506B"/>
  <polygon points="42.70,66.27 86.08,66.27 86.08,76.14 42.70,76.14" fill="#00506B"/>
  <polygon points="43.43,12.16 54.73,15.05 54.59,15.46 54.46,15.88 54.32,16.29 54.17,16.70 54.03,17.12 53.88,17.53 53.73,17.95 53.58,18.36 53.43,18.78 53.27,19.19 53.12,19.60 52.95,20.02 52.79,20.43 52.63,20.85 52.46,21.26 52.29,21.67 52.12,22.09 51.94,22.50 51.76,22.92 51.58,23.33 51.40,23.75 51.22,24.16 51.03,24.57 50.84,24.99 50.65,25.40 50.46,25.81 50.27,26.22 50.07,26.63 49.88,27.03 49.69,27.44 49.49,27.84 49.29,28.24 49.09,28.63 48.90,29.03 48.70,29.42 48.50,29.81 48.30,30.20 48.09,30.58 47.89,30.97 47.69,31.35 47.48,31.73 47.28,32.11 47.07,32.48 46.87,32.86 46.66,33.23 46.45,33.60 46.24,33.96 46.03,34.33 45.82,34.69 45.61,35.05 45.40,35.40 45.19,35.76 44.98,36.10 44.77,36.45 44.56,36.79 44.35,37.12 44.13,37.45 43.92,37.78 43.71,38.11 43.50,38.43 43.29,38.74 43.07,39.06 42.86,39.37 42.65,39.67 42.44,39.97 42.22,40.27 42.01,40.57 41.80,40.86 41.58,41.14 41.37,41.43 41.15,41.71 40.94,41.98 40.85,41.90 40.75,41.82 40.65,41.74 40.55,41.66 40.44,41.57 40.33,41.49 40.22,41.40 40.11,41.32 40.00,41.23 39.88,41.14 39.76,41.05 39.64,40.96 39.51,40.87 39.38,40.78 39.25,40.69 39.12,40.60 38.99,40.50 38.85,40.41 38.71,40.31 38.56,40.22 38.42,40.12 38.27,40.02 38.12,39.92 37.97,39.82 37.82,39.72 37.66,39.62 37.51,39.52 37.35,39.42 37.20,39.32 37.05,39.22 36.89,39.12 36.74,39.02 36.58,38.92 36.43,38.82 36.27,38.73 36.12,38.63 35.96,38.53 35.81,38.43 35.65,38.33 35.50,38.23 35.34,38.13 35.18,38.04 35.03,37.94 34.87,37.84 34.72,37.74 34.56,37.65 34.40,37.55 34.25,37.45 34.09,37.36 33.93,37.26 33.78,37.17 33.63,37.08 33.48,36.99 33.34,36.90 33.19,36.81 33.05,36.73 32.91,36.64 32.77,36.56 32.63,36.48 32.49,36.40 32.36,36.32 32.22,36.25 32.09,36.17 31.97,36.10 31.84,36.03 31.71,35.96 31.59,35.89 31.47,35.82 31.35,35.75 31.23,35.69 31.11,35.63 31.00,35.57 31.21,35.33 31.43,35.09 31.64,34.85 31.85,34.60 32.06,34.36 32.27,34.10 32.48,33.85 32.69,33.59 32.90,33.32 33.11,33.06 33.31,32.79 33.52,32.51 33.72,32.24 33.93,31.95 34.13,31.67 34.33,31.38 34.54,31.09 34.74,30.80 34.94,30.50 35.14,30.20 35.34,29.89 35.54,29.58 35.74,29.27 35.93,28.96 36.13,28.64 36.32,28.32 36.52,28.00 36.71,27.67 36.90,27.35 37.09,27.02 37.27,26.69 37.46,26.36 37.64,26.03 37.83,25.69 38.01,25.36 38.19,25.02 38.36,24.68 38.54,24.34 38.71,23.99 38.89,23.65 39.06,23.30 39.23,22.95 39.40,22.60 39.57,22.25 39.73,21.90 39.90,21.54 40.06,21.18 40.22,20.82 40.38,20.46 40.53,20.10 40.69,19.74 40.84,19.38 40.99,19.02 41.14,18.66 41.29,18.30 41.43,17.94 41.57,17.57 41.71,17.21 41.85,16.85 41.98,16.49 42.11,16.13 42.24,15.77 42.37,15.41 42.50,15.05 42.62,14.69 42.74,14.33 42.86,13.96 42.98,13.60 43.09,13.24 43.21,12.88 43.32,12.52 43.43,12.16" fill="#00506B"/>
  <polygon points="72.45,34.05 83.19,34.05 83.19,34.05 83.19,34.05 83.19,34.06 83.19,34.07 83.19,34.09 83.19,34.10 83.19,34.12 83.18,34.15 83.18,34.17 83.18,34.20 83.18,34.23 83.18,34.27 83.18,34.31 83.18,34.35 83.17,34.39 83.17,34.44 83.17,34.49 83.17,34.54 83.17,34.60 83.16,34.66 83.16,34.72 83.16,34.79 83.15,34.86 83.15,34.93 83.15,35.00 83.15,35.08 83.14,35.15 83.14,35.23 83.14,35.31 83.13,35.38 83.13,35.46 83.13,35.54 83.13,35.62 83.13,35.70 83.12,35.78 83.12,35.86 83.12,35.94 83.12,36.02 83.12,36.11 83.12,36.19 83.12,36.28 83.12,36.36 83.11,36.45 83.11,36.54 83.11,36.62 83.11,36.71 83.11,36.80 83.11,36.89 83.11,36.98 83.11,37.07 83.11,37.16 83.11,37.24 83.11,37.33 83.11,37.41 83.11,37.49 83.10,37.57 83.10,37.65 83.10,37.73 83.10,37.81 83.09,37.89 83.09,37.96 83.08,38.03 83.08,38.11 83.08,38.18 83.07,38.25 83.07,38.31 83.06,38.38 83.06,38.45 83.05,38.51 83.04,38.58 83.04,38.64 83.03,38.70 82.99,39.63 82.95,40.55 82.91,41.45 82.87,42.35 82.83,43.23 82.79,44.10 82.75,44.96 82.71,45.81 82.67,46.65 82.63,47.47 82.59,48.29 82.55,49.09 82.51,49.88 82.47,50.66 82.43,51.43 82.39,52.18 82.35,52.93 82.31,53.66 82.27,54.38 82.23,55.09 82.19,55.79 82.15,56.48 82.10,57.16 82.06,57.82 82.02,58.47 81.98,59.12 81.94,59.75 81.90,60.38 81.86,60.99 81.82,61.60 81.77,62.19 81.73,62.78 81.69,63.35 81.64,63.92 81.60,64.48 81.56,65.03 81.51,65.56 81.46,66.09 81.42,66.61 81.37,67.12 81.33,67.62 81.28,68.11 81.23,68.59 81.18,69.06 81.13,69.52 81.08,69.97 81.04,70.41 80.99,70.85 80.93,71.27 80.88,71.69 80.83,72.09 80.78,72.50 80.73,72.89 80.67,73.27 80.62,73.65 80.57,74.02 80.51,74.38 80.46,74.74 80.40,75.09 80.34,75.43 80.29,75.76 80.23,76.08 80.17,76.40 80.11,76.71 80.05,77.01 79.99,77.30 79.93,77.59 79.87,77.87 79.81,78.14 79.74,78.40 79.68,78.66 79.62,78.90 79.55,79.14 79.49,79.38 79.42,79.61 79.36,79.83 79.29,80.05 79.22,80.27 79.15,80.48 79.08,80.68 79.01,80.88 78.94,81.07 78.86,81.26 78.79,81.44 78.71,81.61 78.63,81.78 78.56,81.95 78.48,82.11 78.40,82.26 78.32,82.41 78.24,82.55 78.16,82.69 78.07,82.82 77.99,82.95 77.90,83.07 77.82,83.19 77.69,83.37 77.56,83.54 77.43,83.71 77.30,83.87 77.18,84.03 77.05,84.19 76.92,84.34 76.78,84.49 76.65,84.63 76.52,84.76 76.39,84.90 76.25,85.02 76.12,85.15 75.99,85.26 75.85,85.38 75.72,85.49 75.58,85.59 75.44,85.69 75.30,85.79 75.17,85.88 75.03,85.96 74.89,86.04 74.75,86.12 74.61,86.19 74.47,86.26 74.33,86.33 74.18,86.40 74.04,86.46 73.89,86.52 73.74,86.59 73.59,86.65 73.44,86.70 73.29,86.76 73.14,86.82 72.98,86.87 72.83,86.92 72.67,86.98 72.51,87.03 72.35,87.07 72.19,87.12 72.03,87.17 71.86,87.21 71.70,87.25 71.53,87.29 71.36,87.33 71.19,87.37 71.02,87.40 70.85,87.44 70.69,87.46 70.53,87.49 70.37,87.51 70.21,87.54 70.04,87.56 69.87,87.58 69.70,87.60 69.52,87.62 69.34,87.64 69.16,87.66 68.98,87.67 68.79,87.69 68.60,87.70 68.41,87.72 68.21,87.73 68.01,87.74 67.81,87.75 67.61,87.76 67.40,87.77 67.19,87.78 66.97,87.79 66.76,87.79 66.54,87.80 66.32,87.80 66.09,87.81 65.87,87.81 65.64,87.81 65.42,87.81 65.19,87.81 64.96,87.81 64.73,87.81 64.50,87.81 64.27,87.81 64.04,87.81 63.81,87.81 63.58,87.81 63.35,87.81 63.11,87.81 62.88,87.80 62.65,87.80 62.41,87.80 62.17,87.79 61.94,87.79 61.70,87.78 61.46,87.78 61.23,87.77 60.99,87.76 60.75,87.76 60.74,87.58 60.73,87.41 60.71,87.23 60.70,87.05 60.68,86.86 60.66,86.68 60.64,86.49 60.61,86.30 60.58,86.11 60.55,85.92 60.52,85.72 60.48,85.52 60.45,85.32 60.41,85.12 60.36,84.92 60.32,84.71 60.27,84.51 60.22,84.30 60.17,84.08 60.11,83.87 60.05,83.65 59.99,83.43 59.93,83.21 59.86,82.99 59.80,82.77 59.73,82.55 59.66,82.33 59.59,82.11 59.51,81.90 59.44,81.69 59.36,81.48 59.28,81.27 59.21,81.07 59.12,80.87 59.04,80.67 58.96,80.47 58.88,80.28 58.79,80.09 58.70,79.90 58.62,79.71 58.53,79.53 58.43,79.35 58.34,79.17 58.25,78.99 58.15,78.81 58.06,78.64 57.96,78.47 57.86,78.30 58.06,78.32 58.26,78.34 58.45,78.36 58.65,78.38 58.84,78.39 59.03,78.41 59.23,78.42 59.42,78.44 59.60,78.45 59.79,78.46 59.98,78.48 60.16,78.49 60.34,78.50 60.53,78.51 60.71,78.52 60.88,78.53 61.06,78.54 61.24,78.54 61.41,78.55 61.59,78.56 61.76,78.56 61.93,78.57 62.10,78.57 62.27,78.58 62.43,78.58 62.60,78.58 62.76,78.59 62.91,78.59 63.07,78.59 63.22,78.60 63.37,78.60 63.51,78.60 63.66,78.60 63.80,78.61 63.94,78.61 64.07,78.61 64.20,78.61 64.33,78.61 64.46,78.62 64.58,78.62 64.70,78.62 64.82,78.62 64.94,78.62 65.05,78.62 65.16,78.62 65.27,78.62 65.37,78.62 65.47,78.62 65.55,78.62 65.63,78.62 65.71,78.62 65.78,78.61 65.86,78.61 65.93,78.60 66.01,78.60 66.08,78.59 66.15,78.58 66.22,78.57 66.29,78.56 66.35,78.55 66.42,78.54 66.48,78.53 66.55,78.51 66.61,78.50 66.67,78.48 66.73,78.46 66.79,78.45 66.85,78.43 66.91,78.41 66.97,78.39 67.02,78.36 67.08,78.34 67.13,78.32 67.18,78.29 67.24,78.26 67.29,78.23 67.34,78.20 67.40,78.17 67.45,78.13 67.50,78.09 67.56,78.06 67.61,78.02 67.66,77.97 67.72,77.93 67.77,77.88 67.82,77.83 67.88,77.78 67.93,77.73 67.99,77.68 68.04,77.62 68.09,77.57 68.15,77.51 68.20,77.45 68.25,77.38 68.31,77.32 68.36,77.25 68.42,77.18 68.48,77.09 68.54,77.01 68.60,76.91 68.66,76.81 68.72,76.71 68.77,76.59 68.83,76.48 68.89,76.35 68.94,76.22 69.00,76.08 69.05,75.94 69.11,75.79 69.16,75.64 69.22,75.48 69.27,75.31 69.32,75.14 69.38,74.97 69.43,74.78 69.48,74.59 69.53,74.40 69.58,74.19 69.63,73.99 69.68,73.77 69.73,73.55 69.78,73.32 69.83,73.09 69.88,72.84 69.93,72.59 69.98,72.33 70.03,72.06 70.08,71.79 70.12,71.51 70.17,71.22 70.22,70.92 70.27,70.62 70.31,70.30 70.36,69.98 70.40,69.65 70.45,69.32 70.50,68.97 70.54,68.62 70.59,68.26 70.63,67.90 70.68,67.52 70.72,67.14 70.76,66.75 70.81,66.36 70.85,65.95 70.89,65.54 70.94,65.11 70.98,64.68 71.02,64.24 71.06,63.78 71.10,63.32 71.14,62.85 71.18,62.38 71.22,61.89 71.26,61.39 71.30,60.88 71.34,60.37 71.37,59.84 71.41,59.31 71.45,58.77 71.48,58.21 71.52,57.65 71.56,57.08 71.59,56.50 71.63,55.91 71.66,55.31 71.69,54.71 71.73,54.09 71.76,53.46 71.79,52.83 71.83,52.18 71.86,51.52 71.89,50.85 71.92,50.18 71.95,49.49 71.98,48.79 72.02,48.08 72.05,47.36 72.08,46.63 72.11,45.89 72.14,45.14 72.17,44.38 72.20,43.61 72.22,42.83 72.25,42.04 72.28,41.24 72.31,40.43 72.34,39.60 72.37,38.77 72.40,37.93 72.42,37.08 72.45,36.21" fill="#00506B"/>
  <polygon points="16.73,21.46 23.14,13.52 23.34,13.61 23.53,13.71 23.73,13.81 23.93,13.90 24.13,14.00 24.33,14.10 24.53,14.21 24.73,14.31 24.94,14.41 25.14,14.52 25.35,14.63 25.56,14.73 25.77,14.84 25.98,14.95 26.19,15.07 26.40,15.18 26.62,15.29 26.83,15.41 27.05,15.52 27.27,15.64 27.48,15.76 27.71,15.88 27.93,16.00 28.15,16.13 28.37,16.25 28.60,16.37 28.82,16.50 29.04,16.62 29.26,16.75 29.48,16.87 29.71,16.99 29.93,17.12 30.14,17.24 30.36,17.37 30.58,17.49 30.80,17.62 31.02,17.74 31.23,17.87 31.45,17.99 31.66,18.12 31.88,18.25 32.09,18.37 32.31,18.50 32.52,18.62 32.73,18.75 32.94,18.88 33.15,19.00 33.36,19.13 33.57,19.26 33.78,19.38 33.98,19.51 34.18,19.63 34.38,19.75 34.57,19.88 34.76,20.00 34.94,20.12 35.13,20.24 35.31,20.36 35.48,20.48 35.66,20.60 35.83,20.71 35.99,20.83 36.16,20.94 36.32,21.06 36.48,21.17 36.63,21.28 36.78,21.40 36.93,21.51 37.08,21.62 37.22,21.73 37.36,21.83 37.49,21.94 30.68,30.76 30.56,30.64 30.43,30.53 30.30,30.41 30.17,30.29 30.04,30.18 29.90,30.06 29.76,29.94 29.61,29.81 29.46,29.69 29.31,29.57 29.16,29.44 29.00,29.32 28.84,29.19 28.67,29.06 28.50,28.93 28.33,28.80 28.15,28.67 27.98,28.54 27.79,28.40 27.61,28.27 27.42,28.13 27.23,27.99 27.03,27.86 26.84,27.72 26.63,27.58 26.43,27.44 26.23,27.30 26.02,27.16 25.82,27.02 25.61,26.88 25.41,26.74 25.20,26.60 24.99,26.46 24.78,26.32 24.57,26.18 24.36,26.04 24.14,25.90 23.93,25.76 23.72,25.63 23.50,25.49 23.28,25.35 23.07,25.21 22.85,25.07 22.63,24.94 22.41,24.80 22.19,24.66 21.97,24.52 21.74,24.39 21.52,24.25 21.30,24.12 21.08,23.98 20.86,23.85 20.64,23.72 20.42,23.59 20.20,23.46 19.99,23.33 19.78,23.21 19.56,23.08 19.35,22.96 19.14,22.84 18.94,22.71 18.73,22.59 18.52,22.48 18.32,22.36 18.11,22.24 17.91,22.13 17.71,22.01 17.51,21.90 17.31,21.79 17.12,21.68 16.92,21.57 16.73,21.46" fill="#00506B"/>
  <polygon points="12.00,43.99 18.33,36.13 18.52,36.22 18.71,36.31 18.90,36.40 19.09,36.49 19.28,36.58 19.48,36.68 19.67,36.77 19.87,36.87 20.06,36.97 20.26,37.07 20.46,37.17 20.66,37.27 20.86,37.38 21.06,37.48 21.26,37.59 21.47,37.70 21.67,37.81 21.88,37.92 22.09,38.03 22.30,38.15 22.51,38.26 22.72,38.38 22.93,38.50 23.14,38.62 23.36,38.74 23.57,38.86 23.78,38.98 23.99,39.10 24.20,39.22 24.41,39.34 24.62,39.46 24.83,39.58 25.03,39.70 25.24,39.83 25.45,39.95 25.65,40.07 25.85,40.19 26.06,40.31 26.26,40.44 26.46,40.56 26.66,40.68 26.86,40.80 27.06,40.93 27.25,41.05 27.45,41.17 27.65,41.29 27.84,41.42 28.04,41.54 28.23,41.66 28.42,41.79 28.60,41.91 28.79,42.03 28.97,42.15 29.14,42.28 29.32,42.40 29.49,42.52 29.66,42.64 29.82,42.76 29.98,42.88 30.14,42.99 30.29,43.11 30.45,43.23 30.60,43.35 30.74,43.47 30.88,43.58 31.02,43.70 31.16,43.82 31.29,43.93 31.43,44.05 31.55,44.16 31.68,44.28 31.80,44.39 25.06,53.12 24.96,53.00 24.84,52.88 24.73,52.76 24.61,52.64 24.49,52.52 24.37,52.39 24.24,52.27 24.11,52.14 23.97,52.02 23.83,51.89 23.69,51.76 23.54,51.63 23.40,51.51 23.24,51.38 23.09,51.24 22.93,51.11 22.77,50.98 22.60,50.85 22.43,50.72 22.26,50.58 22.09,50.45 21.91,50.31 21.72,50.18 21.54,50.04 21.35,49.90 21.16,49.76 20.97,49.63 20.78,49.49 20.59,49.36 20.40,49.22 20.21,49.08 20.01,48.95 19.82,48.81 19.62,48.68 19.42,48.54 19.23,48.41 19.03,48.27 18.83,48.14 18.63,48.00 18.42,47.87 18.22,47.73 18.02,47.60 17.81,47.46 17.61,47.33 17.40,47.19 17.19,47.06 16.98,46.93 16.77,46.79 16.56,46.66 16.35,46.53 16.14,46.40 15.94,46.27 15.73,46.14 15.53,46.02 15.32,45.89 15.12,45.77 14.92,45.65 14.71,45.53 14.51,45.41 14.31,45.29 14.12,45.17 13.92,45.06 13.72,44.95 13.53,44.83 13.33,44.72 13.14,44.61 12.95,44.51 12.76,44.40 12.57,44.29 12.38,44.19 12.19,44.09 12.00,43.99" fill="#00506B"/>
  <polygon points="14.08,80.86 14.22,80.60 14.35,80.34 14.49,80.07 14.63,79.79 14.76,79.52 14.90,79.24 15.04,78.95 15.19,78.67 15.33,78.37 15.47,78.08 15.62,77.78 15.77,77.48 15.91,77.17 16.06,76.87 16.21,76.55 16.36,76.24 16.51,75.92 16.67,75.59 16.82,75.27 16.98,74.93 17.13,74.60 17.29,74.26 17.45,73.92 17.61,73.58 17.77,73.23 17.93,72.88 18.09,72.52 18.25,72.17 18.42,71.81 18.58,71.45 18.74,71.09 18.90,70.73 19.07,70.36 19.23,69.99 19.39,69.62 19.56,69.25 19.72,68.88 19.88,68.50 20.05,68.13 20.21,67.75 20.38,67.36 20.54,66.98 20.71,66.59 20.87,66.20 21.04,65.81 21.21,65.42 21.37,65.03 21.54,64.63 21.70,64.23 21.87,63.83 22.03,63.44 22.20,63.04 22.36,62.64 22.52,62.25 22.68,61.85 22.84,61.45 23.00,61.06 23.15,60.66 23.31,60.26 23.46,59.87 23.62,59.47 23.77,59.08 23.92,58.68 24.07,58.29 24.22,57.89 24.37,57.50 24.51,57.10 24.66,56.71 24.80,56.31 24.95,55.92 25.09,55.52 25.23,55.13 34.21,61.46 34.09,61.82 33.96,62.17 33.84,62.53 33.72,62.88 33.60,63.24 33.47,63.60 33.34,63.95 33.22,64.31 33.09,64.67 32.96,65.03 32.83,65.39 32.70,65.75 32.57,66.10 32.44,66.46 32.31,66.83 32.18,67.19 32.04,67.55 31.91,67.91 31.77,68.27 31.64,68.63 31.50,69.00 31.36,69.36 31.22,69.72 31.08,70.09 30.94,70.45 30.80,70.81 30.66,71.18 30.52,71.54 30.38,71.90 30.24,72.26 30.10,72.63 29.95,72.99 29.81,73.35 29.67,73.71 29.53,74.07 29.39,74.43 29.24,74.79 29.10,75.15 28.96,75.51 28.82,75.87 28.67,76.23 28.53,76.59 28.39,76.95 28.25,77.30 28.10,77.66 27.96,78.02 27.81,78.38 27.67,78.74 27.53,79.09 27.38,79.45 27.24,79.80 27.10,80.16 26.95,80.51 26.81,80.86 26.66,81.22 26.52,81.57 26.37,81.92 26.23,82.26 26.08,82.61 25.94,82.96 25.79,83.30 25.65,83.65 25.50,83.99 25.35,84.33 25.21,84.67 25.06,85.01 24.92,85.35 24.77,85.69 24.62,86.03 24.48,86.37 24.33,86.70 24.18,87.03" fill="#00506B"/>
</svg>
